<?xml version="1.0" encoding="UTF-8"?>
<svg id="Layer_2" data-name="Layer 2" xmlns="http://www.w3.org/2000/svg" viewBox="0 0 828.04 153.59">
  <defs>
    <style>
      .cls-1 {
        fill: #fff;
      }
    </style>
  </defs>
  <g id="Layer_1-2" data-name="Layer 1">
    <g>
      <g>
        <path class="cls-1" d="M332.15,32.95h1.9c.45,0,.81.36.81.81v85.84c0,.45-.36.81-.81.81h0c-2.57,0-6.02.07-7.68.17s-9.27.43-9.27-.05h0c0-.36.25-.67.59-.77,2.7-.8,4.77-2.16,6.21-4.07,1.6-2.1,2.68-4.51,3.24-7.22l.61-2.88c.17-8.46.3-23.2.3-32.77s-.49-23.47-1.08-30.91l-2.16-2.99c-2.01-2.78-4.38-4.56-7.11-5.32-.36-.1-.61-.41-.61-.78h0c0-.47.4-.84.87-.81,3.34.22,8.05.53,14.13.94.02,0,.04,0,.05,0ZM384.22,120.72c-5.6-.17-19.19-.31-30.19-.31h-12.38c-.45,0-.81-.36-.81-.81V33.76c0-.45.36-.81.81-.81h3.34c11,0,25.71-.14,32.69-.32l12.11-.63c.48-.03.89.38.86.86-.07,1.21-.11,2.15-.11,2.82,0,1.11.14,3.68.41,7.72l.17,2.71c.05.93.08,2.15.08,2.72s-.4,1.04-.88,1.04h0c-.32,0-.61-.2-.74-.5-1.94-4.48-4.14-7.38-6.59-8.71l-2.55-1.33c-6.5-.36-14.78-.66-18.41-.66s-8.27.05-10.32.12l-1.65.23c-.29.04-.53.24-.64.51l-.87,2.09c-.37,6-.7,12.17-.75,13.72s-.08,8.54-.08,15.54h0c0,.45.36.81.81.81h0c9.41,0,22.17-.26,28.34-.58l2.21-1.16c2.11-1.11,3.83-3.69,5.13-7.73.11-.34.42-.57.77-.57h.35c.48,0,.85.41.81.89-.39,4.61-.59,8.62-.59,12.06,0,2.32.17,5.37.5,9.13.1,1.01.22,2.9.37,5.69.02.46-.35.86-.81.86h-.25c-.41,0-.75-.31-.8-.72-.57-4.48-2-7.59-4.32-9.32l-2.49-1.83c-5.07-.5-18.21-.91-29.21-.91h-.02c-.45,0-.81.36-.81.81h0c0,9.5.16,22.95.36,29.89l.72,5.12c.05.36.34.65.7.69l2.15.28c2.59.08,7.55.14,11.02.14s11.72-.35,18.34-.77l3.49-1.55c3.57-1.57,7.08-5.01,10.55-10.33.15-.23.41-.37.68-.37h.18c.53,0,.92.5.79,1.01-.6,2.3-1.43,4.9-2.49,7.79-1.39,4-2.41,7.5-3.09,10.51-.09.4-.47.66-.88.62l-6.02-.61Z"/>
        <path class="cls-1" d="M540,33.74v85.87c0,.45-.36.81-.81.81-3.8.04-9.4.35-16.82.92-.47.04-.88-.34-.88-.81h0c0-.37.24-.68.58-.79,3.95-1.23,6.77-3.66,8.46-7.3l1.71-3.65c.47-10.5.86-26.8.86-36.22s-.39-22.6-.86-29.28l-1.71-3.21c-1.64-3.01-4.46-5.17-8.47-6.46-.34-.11-.57-.42-.57-.77v-.03c0-.47.41-.84.88-.81,6.46.49,12.07.79,16.84.91.44.01.78.37.78.81ZM551.65,120.43c-.38,0-2.6-.01-4.94-.01h0c-.45,0-.81-.36-.81-.81V33.74c0-.44.36-.8.8-.81,7.21-.16,12.28-.35,15.21-.56,4.59-.28,7.74-.42,9.46-.42,8.3,0,15.38,1.91,21.24,5.73,5.81,3.87,10.18,8.94,13.11,15.19,2.88,6.14,4.31,13.94,4.31,23.4,0,14.39-3.46,25.51-10.37,33.36-6.97,7.86-16.4,11.78-28.3,11.78h-5.53c-7.27-.5-13.81-.97-14.19-.98ZM554.41,40.51c-.2.1-.35.27-.41.49-.82,2.87-.87,5.81-.87,5.81-.2,11-.36,24.55-.36,30.12s.33,19.12.74,30.11c0,0,.02.53,1.54,6.14.07.27.28.48.56.57,4.16,1.24,8.88,1.86,14.17,1.86,10.24,0,18.28-3.24,24.15-9.71,5.92-6.53,8.88-16.13,8.88-28.8s-2.93-22.02-8.8-28.88c-5.87-6.86-14.5-10.29-25.89-10.29-5.75,0-10.32.86-13.72,2.58ZM609.57,108.87c-.75.63-1.75-.31-1.18-1.1,5.19-7.2,7.79-17.32,7.79-30.34s-2.27-23.3-6.82-30.45c-.5-.79.52-1.66,1.22-1.04,3.56,3.19,6.42,6.8,8.58,10.82,3.21,5.97,4.81,12.78,4.81,20.41,0,13.02-4.8,23.58-14.41,31.69Z"/>
        <path class="cls-1" d="M650.81,32.95h1.9c.45,0,.81.36.81.81v85.84c0,.45-.36.81-.81.81h0c-2.57,0-6.02.07-7.68.17s-9.27.43-9.27-.05h0c0-.36.25-.67.59-.77,2.7-.8,4.77-2.16,6.21-4.07,1.6-2.1,2.68-4.51,3.24-7.22l.61-2.88c.17-8.46.3-23.2.3-32.77s-.49-23.47-1.08-30.91l-2.16-2.99c-2.01-2.78-4.38-4.56-7.11-5.32-.36-.1-.61-.41-.61-.78h0c0-.47.4-.84.87-.81,3.34.22,8.05.53,14.13.94.02,0,.04,0,.05,0ZM702.88,120.72c-5.6-.17-19.19-.31-30.19-.31h-12.38c-.45,0-.81-.36-.81-.81V33.76c0-.45.36-.81.81-.81h3.34c11,0,25.71-.14,32.69-.32l12.11-.63c.48-.03.89.38.86.86-.07,1.21-.11,2.15-.11,2.82,0,1.11.14,3.68.42,7.72l.17,2.71c.05.93.08,2.15.08,2.72s-.4,1.04-.88,1.04h0c-.32,0-.61-.2-.74-.5-1.94-4.48-4.14-7.38-6.59-8.71l-2.54-1.33c-6.5-.36-14.78-.66-18.41-.66s-8.27.05-10.32.12l-1.65.23c-.29.04-.53.24-.64.51l-.87,2.09c-.37,6-.7,12.17-.75,13.72s-.08,8.54-.08,15.54h0c0,.45.36.81.81.81h0c9.41,0,22.17-.26,28.34-.58l2.21-1.16c2.11-1.11,3.83-3.69,5.13-7.73.11-.34.42-.57.77-.57h.35c.48,0,.85.41.81.89-.39,4.61-.59,8.62-.59,12.06,0,2.32.17,5.37.5,9.13.1,1.01.22,2.9.37,5.69.02.46-.35.86-.81.86h-.25c-.41,0-.75-.31-.8-.72-.57-4.48-2-7.59-4.32-9.32l-2.49-1.83c-5.07-.5-18.21-.91-29.21-.91h-.02c-.45,0-.81.36-.81.81h0c0,9.5.16,22.95.36,29.89l.72,5.12c.05.36.34.65.7.69l2.15.28c2.59.08,7.55.14,11.02.14s11.72-.35,18.34-.77l3.49-1.55c3.57-1.57,7.08-5.01,10.55-10.33.15-.23.41-.37.68-.37h.18c.53,0,.92.5.79,1.01-.6,2.3-1.43,4.9-2.49,7.79-1.38,4-2.41,7.5-3.08,10.51-.09.4-.47.66-.88.62l-6.02-.61Z"/>
        <path class="cls-1" d="M737.55,32.94l43.25,82.55c.12.23.12.5.01.73l-2.5,5.15c-.14.28-.42.46-.73.46h-.33c-.3,0-.58-.17-.72-.43l-27.63-52.49c-5.12-9.73-14.31-25.03-20.42-33.99l-6.14-1.73c-.35-.1-.6-.41-.6-.78h0c0-.48.4-.85.86-.82l14.28.91c.28.02.54.18.67.43ZM757.26,42.38c3.38,7.41,10.35,21.43,15.49,31.15l10.56,19.97c.31.59,1.16.57,1.45-.03l10.04-21.06c4.73-9.93,10.43-22.5,12.67-27.93v-2.82c0-4.18-1.97-7-5.93-8.44-.32-.12-.55-.42-.55-.76v-.02c0-.48.4-.85.88-.81.76.07,2.02.18,3.77.33,4.26.39,7.61.58,10.04.58h1.94c5.74-.55,10.43-.56,10.43-.03h0c0,.32-.19.61-.49.74-3.43,1.53-6.23,3.53-8.39,6.01l-2.32,2.66c-3.7,7.21-10.62,21.22-15.38,31.14l-16.7,34.78c-.29.6-1.14.62-1.45.02l-38.64-74.14c-.28-.54.1-1.18.71-1.19,4.53-.05,9.79-.35,15.79-.9.48-.04.9.33.9.81h0c0,.36-.24.66-.57.78-2.83.96-4.24,2.89-4.24,5.8v3.38Z"/>
        <path class="cls-1" d="M421.87,120.42l43.25-82.55c.12-.23.12-.5.01-.73l-2.5-5.15c-.14-.28-.42-.46-.73-.46h-.33c-.3,0-.58.17-.72.43l-32.29,61.34c-2.56,4.87-7.19,12.57-10.29,17.11,0,0-5.47,8.03-11.61,9.76-.35.1-.6.41-.6.78h0c0,.48.4.85.86.82l14.28-.91c.28-.02.54-.18.67-.43ZM443.57,106.61c2.28-5,6.25-13.08,8.82-17.94l15.23-28.82c.31-.59,1.16-.57,1.45.03l14.34,30.09c2.37,4.97,6.01,13.19,8.11,18.27,0,0,.26.63.26,3.45,0,4.18-1.97,7-5.93,8.44-.32.12-.55.42-.55.76v.02c0,.48.4.85.88.81.76-.07,2.02-.18,3.77-.33,4.26-.39,7.61-.58,10.04-.58,1.94,0,2.41.05,2.41.05,5.48.52,9.95.52,9.95-.02h0c0-.32-.19-.61-.49-.74-3.43-1.53-6.23-3.53-8.39-6.01-2.32-2.66-4.48-6.87-4.48-6.87-2.51-4.89-6.51-12.96-8.89-17.91l-21.03-43.79c-.29-.6-1.14-.62-1.45-.02l-38.64,74.14c-.28.54.1,1.18.71,1.19,4.53.05,9.79.35,15.79.9.48.04.9-.33.9-.81h0c0-.36-.24-.66-.57-.78-2.83-.96-4.24-2.89-4.24-5.8,0-3.38,1.99-7.75,1.99-7.75Z"/>
      </g>
      <g>
        <path class="cls-1" d="M128.6,130.83L9.01,68.18c-.23-.12-.51-.13-.75-.01l-7.79,3.79c-.29.14-.47.43-.47.75v.89c0,.31.17.59.44.74l92.53,48.71c4.98,2.62,12.86,7.37,17.51,10.54,0,0,15.25,10.43,17.65,19.38.1.36.42.62.8.62h.63c.48,0,.86-.41.83-.88l-1.35-21.19c-.02-.29-.19-.55-.44-.68ZM104.63,97.65c-5.12-2.33-13.38-6.4-18.36-9.03l-45.96-24.3c-.6-.32-.59-1.19.03-1.49l47.9-22.82c5.08-2.42,13.5-6.16,18.7-8.3,0,0,4.8-1.98,8.88-1.98,6.12,0,10.21,2.93,12.28,8.79.12.33.43.56.78.56h.65c.49,0,.87-.41.83-.9-.1-1.04-.26-2.98-.51-5.82-.56-6.15-.84-10.99-.84-14.51,0-2.7.45-8.35,1.34-16.94.05-.49-.33-.93-.83-.93h-.7c-.33,0-.62.2-.75.5-2.21,5.05-5.14,9.16-8.78,12.33-3.84,3.36-13.67,8.4-13.67,8.4-5.01,2.57-13.26,6.66-18.33,9.1L19.6,62.83c-.62.3-.63,1.17-.02,1.49l108.22,56.4c.55.29,1.21-.11,1.21-.73.05-6.76.5-14.68,1.35-23.75.05-.49-.34-.92-.83-.92h-.63c-.37,0-.68.25-.79.59-1.36,4.24-4.18,6.36-8.46,6.36-4.88,0-15.03-4.63-15.03-4.63Z"/>
        <path class="cls-1" d="M157.78,22.76l119.59,62.66c.23.12.51.13.75.01l7.79-3.79c.29-.14.47-.43.47-.75v-.89c0-.31-.17-.59-.44-.74l-92.53-48.71c-4.98-2.62-12.86-7.37-17.51-10.54,0,0-15.25-10.43-17.65-19.38-.1-.36-.42-.62-.8-.62h-.63c-.48,0-.86.41-.83.88l1.35,21.19c.02.29.19.55.44.68ZM181.75,55.94c5.12,2.33,13.38,6.4,18.36,9.03l45.96,24.3c.6.32.59,1.19-.03,1.49l-47.9,22.82c-5.08,2.42-13.5,6.16-18.7,8.3,0,0-4.8,1.98-8.88,1.98-6.12,0-10.21-2.93-12.28-8.79-.12-.33-.43-.56-.78-.56h-.65c-.49,0-.87.41-.83.9.1,1.04.26,2.98.51,5.82.56,6.15.84,10.99.84,14.51,0,2.7-.45,8.35-1.34,16.94-.05.49.33.93.83.93h.7c.33,0,.62-.2.75-.5,2.21-5.05,5.14-9.16,8.78-12.33,3.84-3.36,13.67-8.4,13.67-8.4,5.01-2.57,13.26-6.66,18.33-9.1l67.69-32.5c.62-.3.63-1.17.02-1.49l-108.22-56.4c-.55-.29-1.21.11-1.21.73-.05,6.76-.5,14.68-1.35,23.75-.05.49.34.92.83.92h.63c.37,0,.68-.25.79-.59,1.36-4.24,4.18-6.36,8.46-6.36,4.88,0,15.03,4.63,15.03,4.63Z"/>
      </g>
    </g>
  </g>
</svg>